<svg xmlns="http://www.w3.org/2000/svg" xmlns:xlink="http://www.w3.org/1999/xlink" width="500" zoomAndPan="magnify" viewBox="0 0 375 374.999991" height="500" preserveAspectRatio="xMidYMid meet" version="1.0"><defs><clipPath id="136b67380f"><path d="M 97 28.261719 L 342 28.261719 L 342 274 L 97 274 Z M 97 28.261719 " clip-rule="nonzero"/></clipPath><clipPath id="8190237e2b"><path d="M 141 28.261719 L 342 28.261719 L 342 274 L 141 274 Z M 141 28.261719 " clip-rule="nonzero"/></clipPath></defs><g clip-path="url(#136b67380f)"><path fill="#ffe177" d="M 243.953125 48.582031 C 254.765625 51.15625 265.089844 55.441406 274.546875 61.269531 L 294.425781 52.445312 L 317.847656 75.878906 L 309.027344 95.765625 C 314.855469 105.226562 319.132812 115.554688 321.707031 126.371094 L 341.992188 134.183594 L 341.992188 167.335938 L 321.707031 175.144531 C 319.132812 185.949219 314.855469 196.277344 309.027344 205.738281 L 317.847656 225.625 L 294.425781 249.074219 L 274.546875 240.234375 C 265.089844 246.0625 254.765625 250.359375 243.953125 252.933594 L 236.144531 273.214844 L 203.007812 273.214844 L 195.199219 252.917969 C 184.398438 250.34375 174.078125 246.0625 164.621094 240.234375 L 144.742188 249.074219 L 121.304688 225.625 L 130.140625 205.75 C 124.3125 196.277344 120.019531 185.949219 117.445312 175.144531 L 97.175781 167.335938 L 97.175781 134.183594 L 117.445312 126.371094 C 120.019531 115.554688 124.3125 105.226562 130.140625 95.765625 L 121.304688 75.878906 L 144.742188 52.445312 L 164.605469 61.269531 C 174.078125 55.441406 184.398438 51.15625 195.199219 48.582031 L 203.007812 28.289062 L 236.144531 28.289062 Z M 243.953125 48.582031 " fill-opacity="1" fill-rule="evenodd"/></g><g clip-path="url(#8190237e2b)"><path fill="#ffd064" d="M 287.746094 55.410156 L 294.425781 52.445312 L 317.847656 75.878906 L 309.027344 95.765625 C 314.855469 105.226562 319.132812 115.554688 321.707031 126.371094 L 341.992188 134.183594 L 341.992188 167.335938 L 321.707031 175.144531 C 319.132812 185.949219 314.855469 196.277344 309.027344 205.738281 L 317.847656 225.625 L 294.425781 249.074219 L 287.746094 246.109375 L 308.21875 225.625 L 299.382812 205.738281 C 305.210938 196.277344 309.488281 185.949219 312.0625 175.144531 L 332.347656 167.335938 L 332.347656 134.183594 L 312.0625 126.371094 C 309.488281 115.554688 305.210938 105.226562 299.382812 95.765625 L 308.21875 75.878906 Z M 141.777344 55.410156 L 144.742188 52.445312 L 164.605469 61.269531 C 163.203125 62.050781 161.816406 62.859375 160.457031 63.714844 Z M 243.953125 48.582031 C 254.765625 51.15625 265.089844 55.441406 274.546875 61.269531 L 269.066406 63.714844 C 259.609375 57.882812 245.121094 51.15625 234.308594 48.582031 L 226.5 28.289062 L 236.144531 28.289062 Z M 164.621094 240.234375 L 144.742188 249.074219 L 141.777344 246.109375 L 160.457031 237.804688 C 161.816406 238.644531 163.203125 239.453125 164.621094 240.234375 Z M 274.546875 240.234375 C 265.089844 246.0625 254.765625 250.359375 243.953125 252.933594 L 236.144531 273.214844 L 226.5 273.214844 L 234.308594 252.933594 C 245.121094 250.359375 259.609375 243.632812 269.078125 237.804688 Z M 274.546875 240.234375 " fill-opacity="1" fill-rule="evenodd"/></g><path fill="#eceff1" d="M 219.574219 79.550781 C 258.886719 79.550781 290.753906 111.429688 290.753906 150.757812 C 290.753906 190.074219 258.886719 221.953125 219.574219 221.953125 C 180.28125 221.953125 148.414062 190.074219 148.414062 150.757812 C 148.414062 111.429688 180.28125 79.550781 219.574219 79.550781 Z M 219.574219 79.550781 " fill-opacity="1" fill-rule="evenodd"/><path fill="#d1d1d6" d="M 219.574219 79.550781 C 221.195312 79.550781 222.800781 79.609375 224.40625 79.726562 C 187.347656 82.199219 158.042969 113.050781 158.042969 150.757812 C 158.042969 188.453125 187.347656 219.304688 224.40625 221.792969 C 222.800781 221.894531 221.195312 221.953125 219.574219 221.953125 C 180.28125 221.953125 148.414062 190.074219 148.414062 150.757812 C 148.414062 111.429688 180.28125 79.550781 219.574219 79.550781 Z M 219.574219 79.550781 " fill-opacity="1" fill-rule="evenodd"/><path fill="#8ac9fe" d="M 177.769531 175.21875 C 173.222656 175.21875 170.707031 170.007812 173.488281 166.472656 L 215.34375 113.332031 C 217.507812 110.550781 221.660156 110.550781 223.820312 113.332031 L 265.679688 166.472656 C 268.460938 170.007812 265.945312 175.21875 261.394531 175.21875 L 244.042969 175.21875 L 244.042969 271.421875 C 244.042969 272.484375 243.621094 273.503906 242.871094 274.253906 C 242.121094 275.003906 241.105469 275.425781 240.042969 275.425781 L 199.125 275.425781 C 198.0625 275.425781 197.042969 275.003906 196.292969 274.253906 C 195.542969 273.503906 195.121094 272.484375 195.121094 271.421875 L 195.121094 175.21875 Z M 177.769531 175.21875 " fill-opacity="1" fill-rule="evenodd"/><path fill="#60b7ff" d="M 214.367188 114.574219 L 215.34375 113.332031 C 217.507812 110.550781 221.660156 110.550781 223.820312 113.332031 L 265.679688 166.472656 C 268.460938 170.007812 265.945312 175.21875 261.394531 175.21875 L 250.960938 175.21875 C 255.511719 175.21875 258.027344 170.007812 255.246094 166.472656 Z M 244.042969 175.21875 L 244.042969 271.421875 C 244.042969 272.484375 243.621094 273.503906 242.871094 274.253906 C 242.121094 275.003906 241.105469 275.425781 240.042969 275.425781 L 229.609375 275.425781 C 230.671875 275.425781 231.6875 275.003906 232.4375 274.253906 C 233.1875 273.503906 233.609375 272.484375 233.609375 271.421875 L 233.609375 175.21875 Z M 244.042969 175.21875 " fill-opacity="1" fill-rule="evenodd"/><path fill="#f6dccd" d="M 49.210938 260.472656 L 112.46875 223.8125 C 124.347656 216.925781 136.414062 212.042969 149.472656 216.277344 C 164.019531 221.007812 187.777344 231.136719 212.007812 235.503906 C 221.007812 238.421875 226.613281 247.425781 224.171875 256.5625 C 221.710938 265.699219 214.007812 270.410156 203.105469 268.730469 L 211.589844 270.085938 C 221.292969 271.648438 230.195312 270.3125 238.699219 265.355469 L 299.515625 229.914062 C 346.796875 202.375 353.738281 244.753906 338.027344 254.445312 L 227.640625 322.441406 C 217.5 328.679688 206.382812 330.148438 194.867188 327.058594 L 114.8125 305.597656 L 85.148438 322.726562 C 79.449219 326.007812 72.125 324.042969 68.828125 318.339844 L 44.84375 276.796875 C 41.566406 271.09375 43.527344 263.769531 49.210938 260.472656 Z M 49.210938 260.472656 " fill-opacity="1" fill-rule="evenodd"/><path fill="#f1cbbc" d="M 222.722656 260.355469 C 219.347656 266.976562 212.371094 270.160156 203.105469 268.730469 C 190.007812 265.257812 176.890625 261.710938 163.792969 258.203125 C 160.285156 257.246094 158.207031 253.644531 159.140625 250.132812 C 160.074219 246.625 163.695312 244.542969 167.203125 245.480469 Z M 222.722656 260.355469 " fill-opacity="1" fill-rule="evenodd"/><path fill="#f1cbbc" d="M 49.210938 260.472656 L 112.46875 223.8125 C 124.347656 216.925781 136.414062 212.042969 149.472656 216.277344 C 157.253906 218.796875 167.683594 222.878906 179.386719 226.789062 L 56.835938 297.589844 L 44.84375 276.796875 C 41.566406 271.09375 43.527344 263.769531 49.210938 260.472656 Z M 49.210938 260.472656 " fill-opacity="1" fill-rule="evenodd"/><path fill="#d1d1d6" d="M 56.550781 242.238281 L 106.730469 330.929688 C 109.152344 335.21875 107.625 340.714844 103.355469 343.136719 L 86.273438 352.804688 C 82.003906 355.230469 76.511719 353.703125 74.070312 349.410156 L 23.910156 260.71875 C 21.472656 256.425781 22.996094 250.933594 27.285156 248.511719 L 44.347656 238.84375 C 48.640625 236.417969 54.128906 237.945312 56.550781 242.238281 Z M 56.550781 242.238281 " fill-opacity="1" fill-rule="evenodd"/><path fill="#b1b1b5" d="M 82.957031 303.175781 L 91.820312 318.875 L 100.609375 334.398438 C 103.03125 338.671875 101.527344 344.148438 97.253906 346.589844 L 103.355469 343.136719 C 107.625 340.714844 109.152344 335.21875 106.730469 330.929688 L 97.921875 315.347656 L 80.230469 284.066406 L 62.519531 252.765625 L 56.550781 242.238281 C 54.453125 238.519531 50.050781 236.878906 46.121094 238.078125 L 56.4375 256.3125 L 74.128906 287.59375 L 82.9375 303.15625 Z M 82.957031 303.175781 " fill-opacity="1" fill-rule="evenodd"/><path fill="#685e68" d="M 44.042969 253.757812 C 40.726562 254.234375 38.417969 257.34375 38.898438 260.660156 C 39.390625 264 42.480469 266.308594 45.816406 265.8125 C 49.132812 265.335938 51.441406 262.246094 50.964844 258.90625 C 50.46875 255.570312 47.378906 253.261719 44.042969 253.757812 Z M 44.042969 253.757812 " fill-opacity="1" fill-rule="evenodd"/></svg>