<svg xmlns="http://www.w3.org/2000/svg" xmlns:xlink="http://www.w3.org/1999/xlink" width="500" zoomAndPan="magnify" viewBox="0 0 375 374.999991" height="500" preserveAspectRatio="xMidYMid meet" version="1.0"><defs><clipPath id="cb5679e194"><path d="M 102 20.6875 L 280 20.6875 L 280 157 L 102 157 Z M 102 20.6875 " clip-rule="nonzero"/></clipPath><clipPath id="b0bb0dd0a0"><path d="M 269 20.6875 L 280 20.6875 L 280 157 L 269 157 Z M 269 20.6875 " clip-rule="nonzero"/></clipPath><clipPath id="b9a12e8bdc"><path d="M 184 192 L 342.5625 192 L 342.5625 309 L 184 309 Z M 184 192 " clip-rule="nonzero"/></clipPath></defs><g clip-path="url(#cb5679e194)"><path fill="#eff4f7" d="M 102.882812 156.519531 L 102.882812 69.480469 C 102.882812 67.09375 103.734375 65.03125 105.421875 63.34375 L 145.3125 23.445312 C 147 21.757812 149.054688 20.90625 151.449219 20.90625 L 270.640625 20.90625 C 275.417969 20.90625 279.3125 24.800781 279.3125 29.582031 L 279.3125 156.519531 Z M 102.882812 156.519531 " fill-opacity="1" fill-rule="evenodd"/></g><path fill="#e2e3e3" d="M 145.3125 23.445312 L 105.421875 63.34375 C 104.648438 64.117188 104.054688 64.960938 103.632812 65.882812 L 140.015625 65.882812 C 144.328125 65.882812 147.847656 62.363281 147.847656 58.050781 L 147.847656 21.660156 C 146.929688 22.074219 146.085938 22.675781 145.3125 23.445312 Z M 145.3125 23.445312 " fill-opacity="1" fill-rule="evenodd"/><g clip-path="url(#b0bb0dd0a0)"><path fill="#e2e3e3" d="M 269.296875 156.519531 L 269.296875 20.90625 L 270.632812 20.90625 C 275.410156 20.90625 279.304688 24.800781 279.304688 29.582031 L 279.304688 156.519531 Z M 269.296875 156.519531 " fill-opacity="1" fill-rule="evenodd"/></g><path fill="#8d9ca8" d="M 171.253906 73.164062 C 168.425781 73.164062 166.132812 70.875 166.132812 68.046875 C 166.132812 65.21875 168.425781 62.929688 171.253906 62.929688 L 257.109375 62.929688 C 259.9375 62.929688 262.226562 65.21875 262.226562 68.046875 C 262.226562 70.875 259.9375 73.164062 257.109375 73.164062 Z M 171.253906 48.359375 C 168.425781 48.359375 166.132812 46.070312 166.132812 43.242188 C 166.132812 40.414062 168.425781 38.121094 171.253906 38.121094 L 257.109375 38.121094 C 259.9375 38.121094 262.226562 40.414062 262.226562 43.242188 C 262.226562 46.070312 259.9375 48.359375 257.109375 48.359375 Z M 125.082031 147.582031 C 122.253906 147.582031 119.960938 145.289062 119.960938 142.464844 C 119.960938 139.636719 122.253906 137.34375 125.082031 137.34375 L 257.109375 137.34375 C 259.9375 137.34375 262.226562 139.636719 262.226562 142.464844 C 262.226562 145.289062 259.9375 147.582031 257.109375 147.582031 Z M 125.082031 122.777344 C 122.253906 122.777344 119.960938 120.484375 119.960938 117.65625 C 119.960938 114.828125 122.253906 112.539062 125.082031 112.539062 L 257.109375 112.539062 C 259.9375 112.539062 262.226562 114.828125 262.226562 117.65625 C 262.226562 120.484375 259.9375 122.777344 257.109375 122.777344 Z M 125.082031 97.96875 C 122.253906 97.96875 119.960938 95.679688 119.960938 92.851562 C 119.960938 90.023438 122.253906 87.734375 125.082031 87.734375 L 257.109375 87.734375 C 259.9375 87.734375 262.226562 90.023438 262.226562 92.851562 C 262.226562 95.679688 259.9375 97.96875 257.109375 97.96875 Z M 125.082031 97.96875 " fill-opacity="1" fill-rule="evenodd"/><path fill="#42a5f5" d="M 295.535156 149.398438 L 218.011719 271.179688 L 218.011719 308.5 L 164.175781 336.972656 L 164.175781 271.179688 L 86.65625 149.398438 Z M 295.535156 149.398438 " fill-opacity="1" fill-rule="evenodd"/><path fill="#2d90f1" d="M 295.535156 149.398438 L 218.011719 271.179688 L 218.011719 308.5 L 164.175781 336.972656 L 164.175781 330.210938 L 205.21875 308.5 L 205.21875 271.179688 L 282.742188 149.398438 Z M 295.535156 149.398438 " fill-opacity="1" fill-rule="evenodd"/><path fill="#64b5f6" d="M 94.070312 139.277344 L 288.113281 139.277344 C 295.632812 139.277344 301.777344 145.425781 301.777344 152.941406 C 301.777344 160.460938 295.632812 166.609375 288.113281 166.609375 L 94.070312 166.609375 C 86.550781 166.609375 80.40625 160.460938 80.40625 152.941406 C 80.410156 145.425781 86.558594 139.277344 94.070312 139.277344 Z M 94.070312 139.277344 " fill-opacity="1" fill-rule="evenodd"/><path fill="#42a5f5" d="M 94.070312 139.277344 L 288.113281 139.277344 C 293.515625 139.277344 298.210938 142.449219 300.421875 147.03125 C 298.632812 146.160156 296.621094 145.675781 294.511719 145.675781 L 100.464844 145.675781 C 92.949219 145.675781 86.800781 151.824219 86.800781 159.339844 C 86.800781 161.457031 87.289062 163.460938 88.15625 165.253906 C 83.585938 163.039062 80.40625 158.34375 80.40625 152.941406 C 80.410156 145.425781 86.558594 139.277344 94.070312 139.277344 Z M 94.070312 139.277344 " fill-opacity="1" fill-rule="evenodd"/><g clip-path="url(#b9a12e8bdc)"><path fill="#004960" d="M 189.238281 308.648438 L 337.933594 308.648438 C 340.480469 308.648438 342.5625 306.5625 342.5625 304.015625 L 342.5625 197.480469 C 342.5625 194.933594 340.480469 192.847656 337.933594 192.847656 L 189.238281 192.847656 C 186.695312 192.847656 184.609375 194.933594 184.609375 197.480469 L 184.609375 304.023438 C 184.609375 306.5625 186.695312 308.648438 189.238281 308.648438 Z M 189.238281 308.648438 " fill-opacity="1" fill-rule="evenodd"/><path fill="#003748" d="M 189.238281 308.648438 L 191.003906 308.648438 L 191.003906 203.878906 C 191.003906 201.332031 193.089844 199.246094 195.636719 199.246094 L 342.558594 199.246094 L 342.558594 197.480469 C 342.558594 194.933594 340.472656 192.847656 337.925781 192.847656 L 189.238281 192.847656 C 186.695312 192.847656 184.609375 194.933594 184.609375 197.480469 L 184.609375 304.015625 C 184.609375 306.5625 186.695312 308.648438 189.238281 308.648438 Z M 189.238281 308.648438 " fill-opacity="1" fill-rule="evenodd"/></g><path fill="#fc685b" d="M 202.972656 267.417969 L 219.453125 267.417969 C 220.417969 267.417969 221.203125 268.203125 221.203125 269.171875 L 221.203125 300.488281 C 221.203125 301.457031 220.417969 302.242188 219.453125 302.242188 L 202.972656 302.242188 C 202.007812 302.242188 201.222656 301.457031 201.222656 300.488281 L 201.222656 269.171875 C 201.214844 268.203125 202.007812 267.417969 202.972656 267.417969 Z M 202.972656 267.417969 " fill-opacity="1" fill-rule="evenodd"/><path fill="#f35244" d="M 216.234375 267.417969 L 219.453125 267.417969 C 220.417969 267.417969 221.203125 268.203125 221.203125 269.171875 L 221.203125 300.488281 C 221.203125 301.457031 220.417969 302.242188 219.453125 302.242188 L 202.972656 302.242188 C 202.007812 302.242188 201.222656 301.457031 201.222656 300.488281 L 201.222656 297.273438 L 214.480469 297.273438 C 215.449219 297.273438 216.234375 296.484375 216.234375 295.519531 Z M 216.234375 267.417969 " fill-opacity="1" fill-rule="evenodd"/><path fill="#ffda2d" d="M 237.882812 228.816406 L 254.367188 228.816406 C 255.332031 228.816406 256.117188 229.605469 256.117188 230.570312 L 256.117188 300.488281 C 256.117188 301.457031 255.332031 302.242188 254.367188 302.242188 L 237.882812 302.242188 C 236.914062 302.242188 236.128906 301.457031 236.128906 300.488281 L 236.128906 230.570312 C 236.128906 229.605469 236.914062 228.816406 237.882812 228.816406 Z M 237.882812 228.816406 " fill-opacity="1" fill-rule="evenodd"/><path fill="#ffc700" d="M 251.148438 228.816406 L 254.367188 228.816406 C 255.332031 228.816406 256.117188 229.605469 256.117188 230.570312 L 256.117188 300.488281 C 256.117188 301.457031 255.332031 302.242188 254.367188 302.242188 L 237.882812 302.242188 C 236.914062 302.242188 236.128906 301.457031 236.128906 300.488281 L 236.128906 297.273438 L 249.390625 297.273438 C 250.355469 297.273438 251.140625 296.484375 251.140625 295.519531 L 251.140625 228.816406 Z M 251.148438 228.816406 " fill-opacity="1" fill-rule="evenodd"/><path fill="#72d561" d="M 272.792969 245.414062 L 289.277344 245.414062 C 290.246094 245.414062 291.03125 246.203125 291.03125 247.167969 L 291.03125 300.488281 C 291.03125 301.457031 290.246094 302.242188 289.277344 302.242188 L 272.792969 302.242188 C 271.828125 302.242188 271.042969 301.457031 271.042969 300.488281 L 271.042969 247.167969 C 271.042969 246.207031 271.828125 245.414062 272.792969 245.414062 Z M 272.792969 245.414062 " fill-opacity="1" fill-rule="evenodd"/><path fill="#57ca5a" d="M 286.0625 245.414062 L 289.277344 245.414062 C 290.246094 245.414062 291.03125 246.203125 291.03125 247.167969 L 291.03125 300.488281 C 291.03125 301.457031 290.246094 302.242188 289.277344 302.242188 L 272.792969 302.242188 C 271.828125 302.242188 271.042969 301.457031 271.042969 300.488281 L 271.042969 297.273438 L 284.308594 297.273438 C 285.273438 297.273438 286.0625 296.484375 286.0625 295.519531 Z M 286.0625 245.414062 " fill-opacity="1" fill-rule="evenodd"/><path fill="#64b5f6" d="M 307.707031 213.175781 L 324.191406 213.175781 C 325.160156 213.175781 325.945312 213.960938 325.945312 214.929688 L 325.945312 300.488281 C 325.945312 301.457031 325.160156 302.242188 324.191406 302.242188 L 307.707031 302.242188 C 306.742188 302.242188 305.957031 301.457031 305.957031 300.488281 L 305.957031 214.933594 C 305.957031 213.960938 306.742188 213.175781 307.707031 213.175781 Z M 307.707031 213.175781 " fill-opacity="1" fill-rule="evenodd"/><path fill="#42a5f5" d="M 320.976562 213.175781 L 324.191406 213.175781 C 325.160156 213.175781 325.945312 213.960938 325.945312 214.929688 L 325.945312 300.488281 C 325.945312 301.457031 325.160156 302.242188 324.191406 302.242188 L 307.707031 302.242188 C 306.742188 302.242188 305.957031 301.457031 305.957031 300.488281 L 305.957031 297.273438 L 319.214844 297.273438 C 320.183594 297.273438 320.96875 296.484375 320.96875 295.519531 L 320.96875 213.175781 Z M 320.976562 213.175781 " fill-opacity="1" fill-rule="evenodd"/><path fill="#fc685b" d="M 49.21875 247.15625 L 36.554688 247.15625 C 33.753906 247.15625 32.039062 250.378906 33.828125 252.703125 L 59.457031 285.871094 C 60.835938 287.65625 63.523438 287.65625 64.90625 285.871094 L 90.53125 252.703125 C 92.320312 250.378906 90.609375 247.15625 87.804688 247.15625 L 75.140625 247.15625 L 75.140625 192.011719 C 75.140625 189.527344 73.113281 187.5 70.628906 187.5 L 53.730469 187.5 C 51.25 187.5 49.21875 189.527344 49.21875 192.011719 Z M 49.21875 247.15625 " fill-opacity="1" fill-rule="evenodd"/><path fill="#f35244" d="M 58.980469 285.257812 L 59.457031 285.871094 C 60.835938 287.65625 63.523438 287.65625 64.90625 285.871094 L 90.53125 252.703125 C 92.320312 250.378906 90.609375 247.15625 87.804688 247.15625 L 81.410156 247.15625 C 84.210938 247.15625 85.925781 250.378906 84.132812 252.703125 Z M 75.140625 247.15625 L 68.742188 247.15625 L 68.742188 192.011719 C 68.742188 189.527344 66.714844 187.5 64.234375 187.5 L 70.628906 187.5 C 73.113281 187.5 75.140625 189.527344 75.140625 192.011719 Z M 75.140625 247.15625 " fill-opacity="1" fill-rule="evenodd"/></svg>