<svg xmlns="http://www.w3.org/2000/svg" xmlns:xlink="http://www.w3.org/1999/xlink" width="500" zoomAndPan="magnify" viewBox="0 0 375 374.999991" height="500" preserveAspectRatio="xMidYMid meet" version="1.0"><defs><clipPath id="39be7492a2"><path d="M 50.390625 50.390625 L 324.609375 50.390625 L 324.609375 324.609375 L 50.390625 324.609375 Z M 50.390625 50.390625 " clip-rule="nonzero"/></clipPath><clipPath id="8e10296cee"><path d="M 208.75 64.285156 L 219.945312 88.269531 C 233.671875 117.683594 257.316406 141.328125 286.730469 155.054688 L 310.714844 166.25 C 318.972656 170.101562 324.25 178.390625 324.25 187.5 C 324.25 196.609375 318.972656 204.898438 310.714844 208.75 L 286.730469 219.945312 C 257.316406 233.671875 233.671875 257.316406 219.945312 286.730469 L 208.75 310.714844 C 204.898438 318.972656 196.609375 324.25 187.5 324.25 C 178.390625 324.25 170.101562 318.972656 166.25 310.714844 L 155.054688 286.730469 C 141.328125 257.316406 117.683594 233.671875 88.269531 219.945312 L 64.285156 208.75 C 56.027344 204.898438 50.75 196.609375 50.75 187.5 C 50.75 178.390625 56.027344 170.101562 64.285156 166.25 L 88.269531 155.054688 C 117.683594 141.328125 141.328125 117.683594 155.054688 88.269531 L 166.25 64.285156 C 170.101562 56.027344 178.390625 50.75 187.5 50.75 C 196.609375 50.75 204.898438 56.027344 208.75 64.285156 Z M 208.75 64.285156 " clip-rule="nonzero"/></clipPath></defs><rect x="-37.5" width="450" fill="#ffffff" y="-37.499999" height="449.999989" fill-opacity="1"/><rect x="-37.5" width="450" fill="#ffffff" y="-37.499999" height="449.999989" fill-opacity="1"/><g clip-path="url(#39be7492a2)"><g clip-path="url(#8e10296cee)"><path fill="#c8b5ed" d="M 18.75 18.75 L 356.25 18.75 L 356.25 356.25 L 18.75 356.25 Z M 18.75 18.75 " fill-opacity="1" fill-rule="nonzero"/></g></g></svg>