<svg xmlns="http://www.w3.org/2000/svg" xmlns:xlink="http://www.w3.org/1999/xlink" width="500" zoomAndPan="magnify" viewBox="0 0 375 374.999991" height="500" preserveAspectRatio="xMidYMid meet" version="1.0"><defs><clipPath id="0c8988d82d"><path d="M 21 21 L 354 21 L 354 354 L 21 354 Z M 21 21 " clip-rule="nonzero"/></clipPath><clipPath id="d475079cff"><path d="M 201.328125 27.609375 L 223.808594 51.664062 C 232.597656 61.0625 245.015625 66.207031 257.875 65.773438 L 290.785156 64.660156 C 296.023438 64.484375 301.097656 66.488281 304.804688 70.195312 C 308.511719 73.902344 310.515625 78.976562 310.339844 84.214844 L 309.226562 117.125 C 308.792969 129.984375 313.9375 142.402344 323.335938 151.191406 L 347.390625 173.671875 C 351.222656 177.25 353.394531 182.257812 353.394531 187.5 C 353.394531 192.742188 351.222656 197.75 347.390625 201.328125 L 323.335938 223.808594 C 313.9375 232.597656 308.792969 245.015625 309.226562 257.875 L 310.339844 290.785156 C 310.515625 296.023438 308.511719 301.097656 304.804688 304.804688 C 301.097656 308.511719 296.023438 310.515625 290.785156 310.339844 L 257.875 309.226562 C 245.015625 308.792969 232.597656 313.9375 223.808594 323.335938 L 201.328125 347.390625 C 197.75 351.222656 192.742188 353.394531 187.5 353.394531 C 182.257812 353.394531 177.25 351.222656 173.671875 347.390625 L 151.191406 323.335938 C 142.402344 313.9375 129.984375 308.792969 117.125 309.226562 L 84.214844 310.339844 C 78.976562 310.515625 73.902344 308.511719 70.195312 304.804688 C 66.488281 301.097656 64.484375 296.023438 64.660156 290.785156 L 65.773438 257.875 C 66.207031 245.015625 61.0625 232.597656 51.664062 223.808594 L 27.609375 201.328125 C 23.777344 197.75 21.605469 192.742188 21.605469 187.5 C 21.605469 182.257812 23.777344 177.25 27.609375 173.671875 L 51.664062 151.191406 C 61.0625 142.402344 66.207031 129.984375 65.773438 117.125 L 64.660156 84.214844 C 64.484375 78.976562 66.488281 73.902344 70.195312 70.195312 C 73.902344 66.488281 78.976562 64.484375 84.214844 64.660156 L 117.125 65.773438 C 129.984375 66.207031 142.402344 61.0625 151.191406 51.664062 L 173.671875 27.609375 C 177.25 23.777344 182.257812 21.605469 187.5 21.605469 C 192.742188 21.605469 197.75 23.777344 201.328125 27.609375 Z M 201.328125 27.609375 " clip-rule="nonzero"/></clipPath></defs><g clip-path="url(#0c8988d82d)"><g clip-path="url(#d475079cff)"><path fill="#c8b5ed" d="M 12.8125 12.8125 L 362.1875 12.8125 L 362.1875 362.1875 L 12.8125 362.1875 Z M 12.8125 12.8125 " fill-opacity="1" fill-rule="nonzero"/></g></g></svg>