<svg xmlns="http://www.w3.org/2000/svg" xmlns:xlink="http://www.w3.org/1999/xlink" width="500" zoomAndPan="magnify" viewBox="0 0 375 374.999991" height="500" preserveAspectRatio="xMidYMid meet" version="1.0"><defs><clipPath id="76cd5bf42d"><path d="M 9.476562 44 L 374 44 L 374 356.109375 L 9.476562 356.109375 Z M 9.476562 44 " clip-rule="nonzero"/></clipPath></defs><path fill="#4699d3" d="M 165.148438 63.664062 C 156.484375 63.664062 148.042969 64.480469 139.75 66.109375 C 152.261719 62.476562 165.296875 60.546875 178.847656 60.546875 C 225.496094 60.546875 266.890625 83.246094 292.660156 118.253906 L 274.148438 118.253906 C 249.265625 85.023438 209.722656 63.664062 165.148438 63.664062 Z M 320.28125 134.496094 L 320.28125 153.332031 C 318.578125 152.890625 316.875 152.519531 315.320312 152.222656 L 315.320312 137.015625 C 315.320312 135.238281 313.910156 133.828125 312.132812 133.828125 L 202.839844 133.828125 C 201.0625 133.828125 199.652344 135.238281 199.652344 137.015625 L 199.652344 160.972656 C 185.511719 163.570312 173.589844 166.386719 164.40625 168.539062 L 164.40625 166.609375 L 139.304688 166.609375 C 137.675781 166.609375 136.34375 167.945312 136.34375 169.578125 L 136.34375 174.175781 C 134.34375 176.398438 132.492188 179.292969 132.492188 179.292969 L 125.085938 194.644531 C 121.828125 203.324219 112.570312 208.960938 112.570312 208.960938 L 109.609375 210.074219 L 109.609375 198.726562 L 92.207031 198.726562 C 90.578125 198.726562 89.246094 200.058594 89.246094 201.691406 L 89.246094 217.859375 L 62.589844 228.097656 L 62.589844 211.332031 C 62.589844 209.628906 63.476562 208.070312 64.882812 207.179688 L 83.542969 195.164062 C 84.285156 194.71875 85.171875 194.421875 86.0625 194.421875 L 86.65625 194.421875 L 86.65625 158.082031 C 86.65625 157.117188 87.171875 156.152344 87.988281 155.632812 L 99.019531 148.511719 C 99.464844 148.214844 99.984375 148.066406 100.503906 148.066406 L 114.421875 148.066406 L 114.421875 139.019531 C 114.421875 138.054688 114.941406 137.089844 115.757812 136.570312 L 126.789062 129.453125 C 127.234375 129.15625 127.753906 129.007812 128.269531 129.007812 L 146.78125 129.007812 L 146.78125 122.183594 C 146.78125 121.070312 147.375 120.105469 148.265625 119.511719 L 164.035156 110.09375 C 164.554688 109.796875 165.074219 109.648438 165.664062 109.648438 L 235.9375 109.648438 C 237.640625 109.648438 239.046875 111.058594 239.046875 112.761719 L 239.046875 129.304688 L 315.097656 129.304688 C 317.910156 129.304688 320.28125 131.601562 320.28125 134.496094 Z M 114.496094 150.738281 L 104.203125 150.738281 C 103.242188 150.738281 102.5 151.554688 102.5 152.445312 L 102.5 194.496094 L 109.683594 194.496094 L 109.683594 179.21875 C 109.683594 177.511719 110.574219 175.957031 111.980469 175.066406 L 114.570312 173.433594 L 114.570312 150.738281 Z M 146.929688 131.75 L 132.046875 131.75 C 131.085938 131.75 130.34375 132.566406 130.34375 133.457031 L 130.34375 163.273438 L 130.640625 163.050781 C 131.378906 162.605469 132.269531 162.308594 133.15625 162.308594 L 146.929688 162.308594 Z M 236.085938 114.246094 C 236.085938 113.207031 235.273438 112.394531 234.234375 112.394531 L 169.664062 112.394531 C 168.628906 112.394531 167.8125 113.207031 167.8125 114.246094 L 167.8125 145.917969 L 193.507812 130.042969 C 194.324219 129.527344 195.285156 129.304688 196.246094 129.304688 L 236.160156 129.304688 L 236.160156 114.246094 Z M 221.71875 326.074219 C 220.609375 326.296875 219.425781 326.445312 218.238281 326.667969 C 208.835938 330.671875 198.988281 333.636719 188.695312 335.417969 C 181.066406 336.828125 173.144531 337.496094 165.148438 337.496094 C 146.042969 337.496094 127.898438 333.5625 111.3125 326.519531 C 131.453125 337.421875 154.484375 343.652344 178.847656 343.652344 C 205.578125 343.652344 230.753906 336.160156 252.082031 323.105469 L 252.15625 323.105469 C 257.117188 320.140625 261.78125 316.875 266.222656 313.316406 C 256.894531 314.800781 247.5625 317.765625 238.011719 321.03125 C 232.605469 322.808594 227.199219 324.589844 221.71875 326.074219 Z M 221.71875 326.074219 " fill-opacity="1" fill-rule="nonzero"/><g clip-path="url(#76cd5bf42d)"><path fill="#262662" d="M 178.625 352.921875 C 188.324219 352.921875 197.65625 351.957031 206.761719 350.25 C 193.433594 353.960938 179.4375 356.109375 164.925781 356.109375 C 79.175781 356.109375 9.644531 286.320312 9.644531 200.578125 C 9.644531 81.761719 136.859375 8.109375 239.046875 63.886719 C 139.96875 20.421875 27.933594 93.109375 27.933594 202.0625 C 27.933594 285.28125 95.613281 352.921875 178.625 352.921875 Z M 203.875 286.613281 C 192.621094 283.574219 186.175781 285.875 186.175781 285.875 C 175.957031 288.320312 167.8125 287.058594 167.8125 287.058594 C 178.105469 292.03125 190.027344 287.949219 190.027344 287.949219 C 192.101562 286.023438 203.875 286.613281 203.875 286.613281 Z M 77.84375 293.957031 C 88.578125 296.480469 100.132812 296.035156 110.792969 296.183594 C 121.753906 295.960938 130.714844 299.445312 141.453125 302.933594 C 162.777344 309.753906 186.398438 308.792969 207.800781 303.304688 C 178.996094 305.378906 155.003906 297.296875 127.898438 289.878906 C 110.792969 287.355469 94.652344 293.660156 77.84375 293.957031 Z M 266.890625 297.667969 C 264.59375 297.890625 262.226562 298.109375 260.003906 298.628906 C 245.34375 301.300781 232.234375 308.71875 218.167969 312.871094 C 193.878906 318.433594 168.40625 315.6875 143.746094 311.460938 C 167.886719 319.472656 194.175781 324.367188 219.648438 319.769531 C 227.71875 317.46875 235.863281 314.652344 243.859375 312.128906 C 254.007812 308.867188 264.152344 306.121094 274.664062 305.675781 C 280.21875 305.378906 285.996094 305.75 291.769531 307.085938 C 308.136719 309.679688 325.09375 314.726562 342.050781 313.167969 C 322.28125 307.828125 302.804688 299.816406 282.367188 297.890625 C 277.332031 297.445312 272.222656 297.296875 266.890625 297.667969 Z M 372.113281 188.785156 C 349.675781 229.652344 331.460938 225.871094 313.910156 262.289062 C 313.910156 262.289062 307.097656 253.683594 301.101562 249.085938 C 301.101562 249.085938 295.695312 243.226562 293.917969 236.773438 C 293.917969 236.773438 292.808594 245.378906 297.992188 251.164062 C 305.765625 259.914062 310.652344 268.148438 311.394531 273.636719 C 311.542969 274.675781 311.46875 275.636719 311.320312 276.453125 L 306.730469 276.378906 C 307.097656 276.453125 307.46875 276.527344 307.839844 276.527344 C 327.242188 279.199219 345.53125 279.496094 345.53125 279.496094 C 330.867188 283.796875 314.28125 282.832031 298.730469 280.609375 C 284.664062 278.605469 271.332031 275.5625 260.964844 274.453125 C 249.488281 273.117188 237.863281 276.15625 229.570312 279.199219 C 222.089844 282.015625 211.796875 284.910156 211.796875 284.910156 C 213.574219 282.683594 218.757812 280.238281 220.90625 278.605469 C 223.203125 277.269531 225.570312 276.15625 227.941406 275.191406 L 141.820312 274.007812 C 157.296875 278.308594 172.921875 281.867188 172.921875 281.867188 C 151.300781 280.164062 118.125 273.636719 118.125 273.636719 C 118.050781 273.636719 118.050781 273.636719 118.050781 273.636719 C 88.507812 267.183594 78.730469 265.699219 68.585938 268.964844 C 61.847656 271.039062 58.664062 273.488281 58.070312 274.007812 C 59.847656 271.335938 62.144531 269.039062 64.957031 267.257812 C 60.8125 262.957031 50.296875 250.570312 50.519531 236.402344 L 112.425781 213.410156 C 112.425781 213.410156 122.570312 211.40625 125.828125 202.730469 L 133.601562 187.675781 C 133.601562 187.675781 135.601562 180.40625 146.339844 177.882812 C 159.964844 174.695312 216.535156 159.117188 291.695312 155.113281 C 298.953125 154.742188 306.210938 155.1875 313.320312 156.375 C 327.242188 158.824219 348.121094 167.277344 368.410156 176.621094 C 373.003906 178.625 374.558594 184.261719 372.113281 188.785156 Z M 172.847656 179.589844 L 157.296875 183.148438 L 156.851562 189.230469 L 172.035156 185.671875 Z M 194.46875 174.84375 L 178.921875 178.402344 L 178.179688 184.632812 L 193.730469 181 Z M 236.753906 294.847656 C 238.457031 293.214844 248.453125 293.734375 248.453125 293.734375 C 238.898438 291.140625 233.421875 293.066406 233.421875 293.066406 C 224.683594 295.144531 217.871094 294.03125 217.871094 294.03125 C 226.609375 298.332031 236.753906 294.847656 236.753906 294.847656 Z M 236.753906 294.847656 " fill-opacity="1" fill-rule="nonzero"/></g></svg>