<svg xmlns="http://www.w3.org/2000/svg" xmlns:xlink="http://www.w3.org/1999/xlink" width="500" zoomAndPan="magnify" viewBox="0 0 375 374.999991" height="500" preserveAspectRatio="xMidYMid meet" version="1.0"><defs><clipPath id="ba140e544c"><path d="M 38 35.417969 L 341 35.417969 L 341 337.667969 L 38 337.667969 Z M 38 35.417969 " clip-rule="nonzero"/></clipPath><clipPath id="c85c2170f7"><path d="M 6.046875 109 L 358 109 L 358 193 L 6.046875 193 Z M 6.046875 109 " clip-rule="nonzero"/></clipPath></defs><g clip-path="url(#ba140e544c)"><path fill="#ed1c24" d="M 334.0625 154.726562 L 330.933594 155.414062 C 333.253906 165.921875 334.363281 176.414062 334.363281 186.742188 C 334.363281 219.945312 322.867188 251.511719 302.929688 276.640625 C 282.984375 301.777344 254.625 320.453125 220.859375 327.910156 C 210.355469 330.230469 199.875 331.339844 189.550781 331.339844 C 156.359375 331.339844 124.808594 319.835938 99.683594 299.886719 C 74.5625 279.933594 55.898438 251.558594 48.441406 217.78125 C 46.125 207.273438 45.011719 196.785156 45.011719 186.457031 C 45.011719 153.253906 56.511719 121.6875 76.453125 96.550781 C 96.398438 71.417969 124.753906 52.746094 158.519531 45.285156 C 169.023438 42.96875 179.503906 41.855469 189.832031 41.855469 C 223.019531 41.855469 254.570312 53.359375 279.691406 73.308594 C 304.8125 93.261719 323.484375 121.632812 330.933594 155.414062 L 334.0625 154.726562 L 337.1875 154.035156 C 329.417969 118.777344 309.902344 89.113281 283.675781 68.289062 C 257.449219 47.464844 224.503906 35.445312 189.832031 35.445312 C 179.046875 35.445312 168.101562 36.609375 157.144531 39.03125 C 121.902344 46.808594 92.25 66.332031 71.433594 92.570312 C 50.617188 118.804688 38.605469 151.769531 38.605469 186.457031 C 38.605469 197.246094 39.769531 208.199219 42.1875 219.160156 C 49.964844 254.414062 69.480469 284.082031 95.703125 304.902344 C 121.925781 325.734375 154.875 337.746094 189.550781 337.746094 C 200.332031 337.746094 211.285156 336.585938 222.242188 334.164062 C 257.480469 326.390625 287.132812 306.863281 307.941406 280.625 C 328.761719 254.394531 340.773438 221.433594 340.773438 186.742188 C 340.773438 175.949219 339.609375 165 337.1875 154.035156 L 334.0625 154.726562 " fill-opacity="1" fill-rule="nonzero"/></g><path fill="#ed1c24" d="M 281.945312 166.230469 L 278.816406 166.921875 C 280.277344 173.554688 280.980469 180.171875 280.980469 186.683594 C 280.980469 207.632812 273.726562 227.554688 261.140625 243.417969 C 248.554688 259.277344 230.667969 271.058594 209.359375 275.765625 C 202.726562 277.226562 196.113281 277.929688 189.601562 277.929688 C 168.660156 277.933594 148.75 270.671875 132.898438 258.082031 C 117.042969 245.492188 105.265625 227.597656 100.566406 206.277344 C 99.101562 199.644531 98.398438 193.027344 98.398438 186.507812 C 98.398438 165.558594 105.65625 145.636719 118.238281 129.78125 C 130.824219 113.917969 148.710938 102.136719 170.023438 97.429688 C 176.652344 95.96875 183.265625 95.269531 189.78125 95.269531 C 210.71875 95.265625 230.632812 102.523438 246.480469 115.113281 C 262.332031 127.707031 274.113281 145.601562 278.816406 166.921875 L 285.074219 165.539062 C 280.042969 142.746094 267.421875 123.558594 250.464844 110.09375 C 233.507812 96.628906 212.203125 88.859375 189.78125 88.859375 C 182.808594 88.859375 175.726562 89.609375 168.644531 91.175781 C 145.859375 96.199219 126.679688 108.832031 113.222656 125.796875 C 99.761719 142.757812 91.992188 164.074219 91.992188 186.507812 C 91.992188 193.484375 92.746094 200.566406 94.3125 207.652344 C 99.332031 230.449219 111.960938 249.636719 128.914062 263.101562 C 145.871094 276.566406 167.175781 284.335938 189.601562 284.339844 C 196.574219 284.339844 203.65625 283.585938 210.738281 282.019531 C 233.523438 276.992188 252.699219 264.363281 266.160156 247.402344 C 279.617188 230.433594 287.386719 209.121094 287.386719 186.683594 C 287.386719 179.710938 286.636719 172.625 285.074219 165.542969 L 281.945312 166.230469 " fill-opacity="1" fill-rule="nonzero"/><path fill="#ed1c24" d="M 83.433594 111.898438 C 82.457031 113.128906 82.125 114.40625 82.445312 115.71875 C 82.757812 117.035156 83.714844 118.320312 85.300781 119.578125 L 85.402344 119.65625 L 82.773438 122.976562 L 74.273438 116.246094 L 92.988281 92.59375 L 101.484375 99.328125 L 98.882812 102.617188 L 98.789062 102.535156 C 97.210938 101.285156 95.738281 100.660156 94.375 100.652344 C 93.015625 100.648438 91.839844 101.265625 90.859375 102.507812 L 90.085938 103.488281 L 103.910156 114.441406 C 104.773438 115.128906 105.398438 115.4375 105.792969 115.375 C 106.1875 115.3125 106.703125 114.886719 107.328125 114.09375 L 108.816406 112.210938 L 112.003906 114.734375 L 100.304688 129.519531 L 97.117188 126.996094 L 98.503906 125.246094 C 99.097656 124.492188 99.402344 123.925781 99.410156 123.542969 C 99.417969 123.164062 98.960938 122.601562 98.039062 121.867188 L 84.207031 110.914062 L 83.433594 111.898438 " fill-opacity="1" fill-rule="nonzero"/><path fill="#ed1c24" d="M 125.046875 87.273438 L 118.140625 81.417969 L 120.816406 90.023438 Z M 131.398438 99.042969 L 129.183594 95.636719 L 130.265625 94.929688 C 131.175781 94.335938 131.699219 93.925781 131.839844 93.695312 C 131.976562 93.464844 131.957031 93.210938 131.777344 92.929688 C 131.652344 92.738281 131.523438 92.574219 131.382812 92.425781 C 131.25 92.273438 131.101562 92.132812 130.949219 91.996094 L 128.425781 89.984375 L 121.953125 94.1875 L 122.6875 96.96875 C 122.789062 97.402344 122.878906 97.730469 122.957031 97.957031 C 123.042969 98.1875 123.132812 98.382812 123.242188 98.546875 C 123.375 98.757812 123.628906 98.824219 123.996094 98.753906 C 124.363281 98.679688 124.816406 98.46875 125.351562 98.121094 L 126.539062 97.347656 L 128.753906 100.757812 L 118.015625 107.734375 L 115.800781 104.324219 L 116.695312 103.742188 C 117.304688 103.351562 117.6875 102.824219 117.851562 102.175781 C 118.015625 101.519531 117.96875 100.65625 117.699219 99.582031 L 112.226562 77.324219 L 120.917969 71.679688 L 138.289062 86.109375 C 139.445312 87.050781 140.261719 87.546875 140.742188 87.589844 C 141.21875 87.636719 141.804688 87.433594 142.503906 86.976562 L 143.761719 86.160156 L 145.980469 89.570312 L 131.398438 99.042969 " fill-opacity="1" fill-rule="nonzero"/><path fill="#ed1c24" d="M 148.5 65.039062 C 147.71875 64.441406 147.121094 64.070312 146.707031 63.933594 C 146.296875 63.792969 145.867188 63.78125 145.421875 63.882812 L 144.46875 64.109375 L 143.53125 60.175781 L 159.152344 56.457031 L 160.085938 60.394531 L 159.375 60.566406 C 158.984375 60.65625 158.699219 60.804688 158.515625 61.003906 C 158.335938 61.207031 158.277344 61.433594 158.339844 61.691406 C 158.375 61.851562 158.484375 62.039062 158.660156 62.246094 C 158.839844 62.457031 159.097656 62.695312 159.4375 62.976562 L 162.230469 65.371094 L 164.652344 60.769531 C 164.753906 60.585938 164.816406 60.433594 164.847656 60.316406 C 164.875 60.195312 164.878906 60.089844 164.859375 60.007812 C 164.808594 59.792969 164.652344 59.648438 164.394531 59.574219 C 164.132812 59.5 163.789062 59.515625 163.375 59.613281 L 162.15625 59.902344 L 161.222656 55.964844 L 173.980469 52.929688 L 174.914062 56.871094 L 174.125 57.054688 C 173.476562 57.210938 172.929688 57.453125 172.484375 57.777344 C 172.039062 58.109375 171.691406 58.523438 171.441406 59.023438 L 166.941406 67.769531 L 176.34375 75.953125 C 176.839844 76.378906 177.371094 76.671875 177.921875 76.832031 C 178.472656 76.992188 179.015625 77.015625 179.542969 76.886719 L 180.660156 76.621094 L 181.601562 80.578125 L 165.738281 84.351562 L 164.796875 80.390625 L 165.667969 80.1875 C 166.074219 80.089844 166.363281 79.945312 166.539062 79.765625 C 166.722656 79.578125 166.777344 79.34375 166.707031 79.058594 C 166.675781 78.921875 166.574219 78.757812 166.410156 78.566406 C 166.238281 78.367188 165.972656 78.105469 165.609375 77.777344 L 162.332031 74.980469 L 159.699219 80.148438 C 159.625 80.308594 159.574219 80.457031 159.539062 80.59375 C 159.507812 80.730469 159.503906 80.839844 159.519531 80.921875 C 159.574219 81.136719 159.730469 81.28125 159.996094 81.339844 C 160.261719 81.40625 160.601562 81.390625 161.023438 81.292969 L 162.546875 80.929688 L 163.484375 84.890625 L 149.609375 88.183594 L 148.671875 84.230469 L 150.050781 83.902344 C 150.78125 83.726562 151.386719 83.4375 151.871094 83.027344 C 152.351562 82.621094 152.863281 81.859375 153.410156 80.742188 L 157.617188 72.367188 L 148.5 65.039062 " fill-opacity="1" fill-rule="nonzero"/><path fill="#ed1c24" d="M 221.378906 55.710938 L 220.03125 66.304688 L 215.523438 65.730469 C 215.40625 64.316406 215.238281 63.203125 215.011719 62.386719 C 214.789062 61.574219 214.472656 60.898438 214.0625 60.371094 C 213.59375 59.765625 212.988281 59.300781 212.242188 58.972656 C 211.5 58.648438 210.265625 58.375 208.542969 58.152344 L 207.691406 58.046875 L 204.050781 57.582031 L 203.0625 65.382812 L 204.160156 65.523438 C 205.441406 65.6875 206.378906 65.492188 206.976562 64.933594 C 207.570312 64.382812 207.96875 63.308594 208.171875 61.722656 L 208.203125 61.476562 L 211.761719 61.929688 L 210.109375 74.90625 L 206.550781 74.453125 C 206.75 72.457031 206.652344 71.136719 206.269531 70.480469 C 205.882812 69.832031 205.035156 69.417969 203.726562 69.253906 L 202.589844 69.109375 L 201.457031 77.960938 L 206.484375 78.605469 C 208.429688 78.855469 209.789062 78.90625 210.554688 78.765625 C 211.320312 78.625 211.941406 78.296875 212.410156 77.78125 C 212.941406 77.164062 213.394531 76.382812 213.769531 75.441406 C 214.148438 74.503906 214.476562 73.300781 214.742188 71.835938 L 219.421875 72.429688 L 217.925781 84.164062 L 187.9375 80.34375 L 188.449219 76.308594 L 189.878906 76.488281 C 190.816406 76.609375 191.445312 76.578125 191.773438 76.394531 C 192.09375 76.210938 192.324219 75.59375 192.460938 74.546875 L 192.484375 74.339844 L 194.460938 58.820312 C 194.601562 57.714844 194.546875 57.019531 194.308594 56.730469 C 194.0625 56.441406 193.4375 56.230469 192.433594 56.101562 L 191.046875 55.925781 L 191.558594 51.910156 L 221.378906 55.710938 " fill-opacity="1" fill-rule="nonzero"/><path fill="#ed1c24" d="M 233.0625 78.300781 L 236.730469 80.203125 C 236.316406 82.480469 236.523438 84.535156 237.351562 86.367188 C 238.179688 88.199219 239.546875 89.605469 241.441406 90.589844 C 242.59375 91.1875 243.636719 91.417969 244.582031 91.289062 C 245.527344 91.160156 246.203125 90.703125 246.613281 89.914062 C 247.246094 88.6875 246.277344 86.886719 243.707031 84.503906 C 242.867188 83.738281 242.214844 83.128906 241.75 82.664062 C 240.226562 81.1875 239.082031 80.003906 238.304688 79.117188 C 237.527344 78.226562 237.011719 77.503906 236.75 76.949219 C 236.121094 75.652344 235.804688 74.410156 235.800781 73.226562 C 235.796875 72.039062 236.101562 70.855469 236.71875 69.671875 C 238.042969 67.117188 240.058594 65.546875 242.761719 64.960938 C 245.472656 64.375 248.378906 64.890625 251.488281 66.503906 C 253.066406 67.320312 254.460938 68.238281 255.671875 69.261719 C 256.882812 70.277344 257.960938 71.441406 258.914062 72.75 L 260.257812 71.828125 L 263.902344 73.71875 L 259.328125 82.554688 L 255.054688 80.335938 C 255.566406 78.3125 255.472656 76.558594 254.769531 75.078125 C 254.070312 73.59375 252.75 72.347656 250.8125 71.339844 C 249.671875 70.753906 248.605469 70.527344 247.605469 70.664062 C 246.601562 70.804688 245.90625 71.25 245.511719 72 C 244.921875 73.136719 245.886719 74.722656 248.398438 76.761719 C 249.015625 77.269531 249.492188 77.667969 249.832031 77.949219 C 253.285156 80.886719 255.453125 83.4375 256.339844 85.59375 C 257.222656 87.757812 257.070312 89.988281 255.871094 92.296875 C 254.542969 94.863281 252.511719 96.40625 249.777344 96.921875 C 247.042969 97.4375 244.027344 96.839844 240.734375 95.132812 C 239.230469 94.351562 237.867188 93.429688 236.648438 92.367188 C 235.429688 91.304688 234.3125 90.070312 233.304688 88.671875 L 231.632812 89.585938 L 228.152344 87.785156 L 233.0625 78.300781 " fill-opacity="1" fill-rule="nonzero"/><path fill="#ed1c24" d="M 136.261719 283.652344 C 134.867188 282.921875 133.558594 282.835938 132.324219 283.394531 C 131.097656 283.953125 130.011719 285.128906 129.070312 286.925781 L 129.011719 287.042969 L 125.261719 285.078125 L 130.28125 275.464844 L 157.003906 289.425781 L 151.984375 299.039062 L 148.269531 297.097656 L 148.328125 296.988281 C 149.257812 295.203125 149.601562 293.636719 149.355469 292.296875 C 149.101562 290.960938 148.273438 289.925781 146.867188 289.191406 L 145.761719 288.609375 L 137.597656 304.257812 C 137.089844 305.230469 136.902344 305.902344 137.039062 306.277344 C 137.167969 306.652344 137.683594 307.074219 138.585938 307.546875 L 140.707031 308.65625 L 138.828125 312.265625 L 122.121094 303.535156 L 124 299.929688 L 125.980469 300.960938 C 126.828125 301.40625 127.441406 301.601562 127.820312 301.535156 C 128.195312 301.476562 128.660156 300.917969 129.207031 299.871094 L 137.371094 284.226562 L 136.261719 283.652344 " fill-opacity="1" fill-rule="nonzero"/><path fill="#ed1c24" d="M 173.976562 308.167969 L 172.691406 299.199219 L 168.984375 307.417969 Z M 170.910156 321.1875 L 171.523438 317.164062 L 172.796875 317.359375 C 173.867188 317.519531 174.53125 317.5625 174.792969 317.476562 C 175.050781 317.398438 175.203125 317.195312 175.253906 316.863281 C 175.285156 316.644531 175.304688 316.429688 175.300781 316.226562 C 175.296875 316.023438 175.277344 315.820312 175.253906 315.617188 L 174.703125 312.4375 L 167.074219 311.28125 L 165.777344 313.847656 C 165.5625 314.238281 165.414062 314.546875 165.324219 314.773438 C 165.234375 314.996094 165.171875 315.203125 165.144531 315.398438 C 165.105469 315.644531 165.25 315.863281 165.570312 316.050781 C 165.894531 316.242188 166.371094 316.386719 167.003906 316.484375 L 168.40625 316.695312 L 167.796875 320.714844 L 155.140625 318.800781 L 155.75 314.78125 L 156.800781 314.941406 C 157.515625 315.042969 158.148438 314.914062 158.707031 314.527344 C 159.261719 314.152344 159.796875 313.472656 160.308594 312.496094 L 170.984375 292.210938 L 181.234375 293.761719 L 184.648438 316.09375 C 184.890625 317.5625 185.175781 318.472656 185.5 318.824219 C 185.828125 319.179688 186.402344 319.414062 187.226562 319.535156 L 188.710938 319.761719 L 188.105469 323.785156 L 170.910156 321.1875 " fill-opacity="1" fill-rule="nonzero"/><path fill="#ed1c24" d="M 200.691406 300.117188 C 199.925781 299.496094 199.339844 299.105469 198.929688 298.953125 C 198.523438 298.804688 198.097656 298.769531 197.648438 298.863281 L 196.6875 299.058594 L 195.878906 295.09375 L 211.609375 291.890625 L 212.417969 295.851562 L 211.699219 295.996094 C 211.304688 296.082031 211.015625 296.214844 210.828125 296.410156 C 210.640625 296.605469 210.574219 296.832031 210.628906 297.089844 C 210.660156 297.253906 210.761719 297.441406 210.933594 297.65625 C 211.101562 297.871094 211.355469 298.121094 211.683594 298.40625 L 214.402344 300.898438 L 216.96875 296.371094 C 217.074219 296.195312 217.144531 296.046875 217.175781 295.925781 C 217.210938 295.808594 217.21875 295.703125 217.203125 295.625 C 217.15625 295.40625 217.007812 295.253906 216.746094 295.171875 C 216.488281 295.089844 216.148438 295.09375 215.726562 295.175781 L 214.5 295.429688 L 213.691406 291.464844 L 226.546875 288.84375 L 227.351562 292.808594 L 226.554688 292.972656 C 225.902344 293.105469 225.34375 293.328125 224.890625 293.640625 C 224.4375 293.957031 224.074219 294.355469 223.808594 294.851562 L 219.027344 303.449219 L 228.15625 311.933594 C 228.648438 312.371094 229.164062 312.679688 229.710938 312.863281 C 230.257812 313.039062 230.796875 313.078125 231.328125 312.96875 L 232.453125 312.738281 L 233.261719 316.722656 L 217.289062 319.976562 L 216.476562 315.992188 L 217.355469 315.816406 C 217.761719 315.734375 218.058594 315.601562 218.242188 315.421875 C 218.425781 315.242188 218.488281 315.007812 218.429688 314.722656 C 218.402344 314.585938 218.304688 314.417969 218.144531 314.214844 C 217.984375 314.015625 217.726562 313.746094 217.375 313.40625 L 214.1875 310.503906 L 211.390625 315.585938 C 211.308594 315.742188 211.25 315.890625 211.214844 316.027344 C 211.175781 316.15625 211.167969 316.265625 211.183594 316.347656 C 211.230469 316.566406 211.382812 316.710938 211.648438 316.789062 C 211.910156 316.859375 212.253906 316.855469 212.675781 316.769531 L 214.207031 316.453125 L 215.019531 320.445312 L 201.046875 323.289062 L 200.234375 319.304688 L 201.625 319.019531 C 202.359375 318.871094 202.976562 318.601562 203.46875 318.207031 C 203.964844 317.816406 204.5 317.070312 205.085938 315.972656 L 209.5625 307.738281 L 200.691406 300.117188 " fill-opacity="1" fill-rule="nonzero"/><path fill="#ed1c24" d="M 257.546875 270.542969 L 263.269531 279.558594 L 259.433594 281.996094 C 258.441406 280.980469 257.597656 280.230469 256.90625 279.746094 C 256.214844 279.265625 255.542969 278.953125 254.890625 278.808594 C 254.140625 278.636719 253.375 278.671875 252.59375 278.894531 C 251.8125 279.117188 250.691406 279.695312 249.222656 280.625 L 248.503906 281.085938 L 245.40625 283.050781 L 249.625 289.691406 L 250.554688 289.101562 C 251.644531 288.402344 252.242188 287.65625 252.351562 286.847656 C 252.453125 286.039062 252.078125 284.957031 251.21875 283.609375 L 251.082031 283.398438 L 254.109375 281.476562 L 261.125 292.511719 L 258.097656 294.4375 C 256.976562 292.777344 256.0625 291.820312 255.34375 291.566406 C 254.628906 291.3125 253.71875 291.539062 252.601562 292.242188 L 251.636719 292.863281 L 256.421875 300.394531 L 260.695312 297.675781 C 262.351562 296.625 263.429688 295.800781 263.929688 295.203125 C 264.429688 294.601562 264.699219 293.957031 264.730469 293.257812 C 264.746094 292.445312 264.59375 291.554688 264.285156 290.589844 C 263.976562 289.625 263.457031 288.492188 262.734375 287.191406 L 266.710938 284.660156 L 273.050781 294.644531 L 247.535156 310.863281 L 245.351562 307.433594 L 246.570312 306.660156 C 247.363281 306.152344 247.832031 305.726562 247.960938 305.378906 C 248.097656 305.027344 247.878906 304.410156 247.3125 303.519531 L 247.199219 303.339844 L 238.816406 290.136719 C 238.21875 289.199219 237.730469 288.695312 237.359375 288.625 C 236.988281 288.558594 236.375 288.800781 235.519531 289.34375 L 234.339844 290.089844 L 232.167969 286.675781 L 257.546875 270.542969 " fill-opacity="1" fill-rule="nonzero"/><path fill="#ed1c24" d="M 279.0625 274.566406 L 281.546875 271.269531 C 283.722656 272.058594 285.777344 272.199219 287.726562 271.6875 C 289.667969 271.175781 291.28125 270.070312 292.574219 268.359375 C 293.351562 267.328125 293.757812 266.335938 293.785156 265.382812 C 293.820312 264.429688 293.476562 263.6875 292.769531 263.152344 C 291.671875 262.324219 289.734375 262.972656 286.953125 265.105469 C 286.058594 265.808594 285.347656 266.351562 284.8125 266.734375 C 283.101562 267.988281 281.746094 268.917969 280.738281 269.539062 C 279.734375 270.152344 278.933594 270.542969 278.34375 270.707031 C 276.957031 271.105469 275.683594 271.210938 274.515625 271.019531 C 273.351562 270.820312 272.230469 270.320312 271.164062 269.515625 C 268.871094 267.785156 267.660156 265.535156 267.535156 262.765625 C 267.414062 259.996094 268.40625 257.214844 270.515625 254.417969 C 271.589844 252.996094 272.726562 251.777344 273.9375 250.753906 C 275.140625 249.730469 276.472656 248.863281 277.917969 248.144531 L 277.234375 246.660156 L 279.707031 243.378906 L 287.644531 249.375 L 284.742188 253.222656 C 282.839844 252.375 281.097656 252.175781 279.519531 252.617188 C 277.9375 253.0625 276.488281 254.15625 275.171875 255.898438 C 274.402344 256.917969 274 257.933594 273.972656 258.949219 C 273.9375 259.957031 274.261719 260.722656 274.9375 261.234375 C 275.957031 262.003906 277.683594 261.320312 280.113281 259.183594 C 280.714844 258.664062 281.183594 258.257812 281.523438 257.976562 C 284.996094 255.058594 287.867188 253.34375 290.144531 252.832031 C 292.421875 252.320312 294.597656 252.847656 296.671875 254.414062 C 298.976562 256.15625 300.15625 258.421875 300.207031 261.199219 C 300.261719 263.984375 299.167969 266.855469 296.933594 269.824219 C 295.910156 271.175781 294.773438 272.363281 293.523438 273.386719 C 292.269531 274.410156 290.867188 275.304688 289.316406 276.066406 L 289.941406 277.871094 L 287.582031 281.003906 L 279.0625 274.566406 " fill-opacity="1" fill-rule="nonzero"/><path fill="#ffffff" d="M 373.839844 191.332031 L 24.632812 268.429688 L 16.535156 231.707031 L 7.253906 189.625 L 356.457031 112.527344 L 365.449219 153.28125 L 373.839844 191.332031 " fill-opacity="1" fill-rule="nonzero"/><g clip-path="url(#c85c2170f7)"><path fill="#ed1c24" d="M 7.941406 192.753906 L 357.152344 115.660156 L 355.769531 109.402344 L 6.5625 186.496094 " fill-opacity="1" fill-rule="nonzero"/></g><path fill="#ed1c24" d="M 373.148438 188.199219 L 23.941406 265.296875 L 25.320312 271.554688 L 374.53125 194.457031 " fill-opacity="1" fill-rule="nonzero"/><path fill="#ed1c24" d="M 31.101562 204.367188 C 27.902344 205.074219 25.691406 206.699219 24.472656 209.242188 C 23.25 211.785156 23.097656 215.121094 24.011719 219.257812 L 24.066406 219.515625 L 15.441406 221.421875 L 10.566406 199.316406 L 71.996094 185.757812 L 76.867188 207.855469 L 68.332031 209.742188 L 68.277344 209.484375 C 67.367188 205.382812 65.816406 202.421875 63.625 200.621094 C 61.429688 198.816406 58.71875 198.269531 55.488281 198.984375 L 52.941406 199.542969 L 60.871094 235.5 C 61.363281 237.738281 61.96875 239.066406 62.6875 239.488281 C 63.402344 239.914062 64.796875 239.894531 66.859375 239.441406 L 71.746094 238.359375 L 73.578125 246.648438 L 35.171875 255.125 L 33.347656 246.835938 L 37.890625 245.832031 C 39.84375 245.40625 41.082031 244.886719 41.601562 244.28125 C 42.121094 243.671875 42.117188 242.171875 41.585938 239.757812 L 33.65625 203.804688 L 31.101562 204.367188 " fill-opacity="1" fill-rule="nonzero"/><path fill="#ed1c24" d="M 116.597656 208.667969 L 107.390625 192.160156 L 106.316406 210.9375 Z M 120.382812 236.3125 L 118.550781 228.023438 L 121.1875 227.441406 C 123.398438 226.957031 124.722656 226.539062 125.164062 226.1875 C 125.605469 225.839844 125.753906 225.324219 125.605469 224.640625 C 125.5 224.1875 125.367188 223.765625 125.210938 223.371094 C 125.046875 222.976562 124.867188 222.59375 124.667969 222.21875 L 121.207031 216.429688 L 105.488281 219.902344 L 104.890625 225.871094 C 104.769531 226.792969 104.703125 227.503906 104.695312 228.007812 C 104.683594 228.519531 104.726562 228.96875 104.816406 229.367188 C 104.929688 229.878906 105.371094 230.195312 106.140625 230.324219 C 106.910156 230.449219 107.945312 230.367188 109.25 230.078125 L 112.136719 229.445312 L 113.96875 237.726562 L 87.882812 243.492188 L 86.054688 235.203125 L 88.21875 234.722656 C 89.691406 234.398438 90.832031 233.65625 91.625 232.496094 C 92.425781 231.347656 92.960938 229.621094 93.230469 227.332031 L 98.835938 179.828125 L 119.945312 175.171875 L 143.316406 216.097656 C 144.890625 218.78125 146.125 220.34375 147.023438 220.785156 C 147.921875 221.222656 149.222656 221.253906 150.921875 220.878906 L 153.980469 220.203125 L 155.808594 228.492188 L 120.382812 236.3125 " fill-opacity="1" fill-rule="nonzero"/><path fill="#ed1c24" d="M 157.921875 179.355469 C 156.304688 178.078125 155.074219 177.289062 154.214844 176.988281 C 153.367188 176.683594 152.472656 176.636719 151.535156 176.84375 L 149.539062 177.285156 L 147.722656 169.035156 L 180.433594 161.816406 L 182.25 170.058594 L 180.761719 170.390625 C 179.941406 170.570312 179.339844 170.867188 178.957031 171.28125 C 178.570312 171.695312 178.4375 172.167969 178.558594 172.703125 C 178.632812 173.042969 178.847656 173.433594 179.214844 173.875 C 179.578125 174.3125 180.105469 174.828125 180.804688 175.417969 L 186.558594 180.523438 L 191.765625 170.992188 C 191.984375 170.621094 192.117188 170.308594 192.179688 170.050781 C 192.246094 169.800781 192.257812 169.589844 192.222656 169.421875 C 192.121094 168.972656 191.800781 168.65625 191.261719 168.496094 C 190.714844 168.335938 190.007812 168.347656 189.132812 168.542969 L 186.582031 169.105469 L 184.765625 160.859375 L 211.488281 154.960938 L 213.304688 163.207031 L 211.648438 163.570312 C 210.285156 163.871094 209.140625 164.359375 208.203125 165.023438 C 207.265625 165.691406 206.527344 166.546875 205.980469 167.585938 L 196.300781 185.679688 L 215.640625 203.070312 C 216.664062 203.972656 217.757812 204.601562 218.90625 204.957031 C 220.050781 205.316406 221.175781 205.367188 222.28125 205.125 L 224.621094 204.609375 L 226.445312 212.898438 L 193.226562 220.230469 L 191.402344 211.945312 L 193.222656 211.539062 C 194.074219 211.355469 194.6875 211.070312 195.0625 210.691406 C 195.441406 210.3125 195.5625 209.820312 195.433594 209.226562 C 195.371094 208.941406 195.164062 208.59375 194.824219 208.179688 C 194.476562 207.765625 193.933594 207.210938 193.1875 206.511719 L 186.4375 200.558594 L 180.777344 211.257812 C 180.613281 211.589844 180.5 211.898438 180.425781 212.183594 C 180.355469 212.464844 180.339844 212.691406 180.375 212.863281 C 180.472656 213.3125 180.800781 213.613281 181.351562 213.757812 C 181.90625 213.90625 182.617188 213.882812 183.496094 213.6875 L 186.683594 212.984375 L 188.511719 221.273438 L 159.453125 227.6875 L 157.625 219.398438 L 160.515625 218.757812 C 162.046875 218.425781 163.316406 217.839844 164.339844 217.007812 C 165.359375 216.167969 166.457031 214.597656 167.636719 212.285156 L 176.691406 194.957031 L 157.921875 179.355469 " fill-opacity="1" fill-rule="nonzero"/><path fill="#ed1c24" d="M 283.652344 139.03125 L 288.449219 160.789062 L 279.1875 162.832031 C 277.972656 160.132812 276.851562 158.0625 275.835938 156.621094 C 274.824219 155.179688 273.726562 154.085938 272.550781 153.335938 C 271.203125 152.472656 269.683594 151.988281 267.992188 151.867188 C 266.308594 151.746094 263.6875 152.082031 260.152344 152.867188 L 258.40625 153.25 L 250.929688 154.898438 L 254.46875 170.921875 L 256.714844 170.425781 C 259.351562 169.839844 261.058594 168.796875 261.84375 167.289062 C 262.621094 165.777344 262.648438 163.394531 261.933594 160.132812 L 261.820312 159.628906 L 269.128906 158.015625 L 275.003906 184.660156 L 267.695312 186.277344 C 266.683594 182.222656 265.570312 179.6875 264.351562 178.679688 C 263.136719 177.667969 261.179688 177.460938 258.488281 178.054688 L 256.15625 178.570312 L 260.167969 196.757812 L 270.488281 194.480469 C 274.480469 193.597656 277.183594 192.753906 278.59375 191.9375 C 280 191.121094 280.988281 190.039062 281.550781 188.699219 C 282.152344 187.109375 282.496094 185.257812 282.578125 183.144531 C 282.660156 181.035156 282.453125 178.441406 281.957031 175.375 L 291.554688 173.253906 L 296.871094 197.347656 L 235.273438 210.949219 L 233.449219 202.660156 L 236.375 202.015625 C 238.300781 201.589844 239.523438 201.082031 240.027344 200.496094 C 240.539062 199.90625 240.558594 198.539062 240.078125 196.378906 L 239.988281 195.957031 L 232.957031 164.082031 C 232.457031 161.816406 231.863281 160.484375 231.183594 160.085938 C 230.5 159.683594 229.125 159.714844 227.054688 160.171875 L 224.210938 160.796875 L 222.394531 152.550781 L 283.652344 139.03125 " fill-opacity="1" fill-rule="nonzero"/><path fill="#ed1c24" d="M 310.21875 171.851562 L 318.625 169.992188 C 321.007812 174.195312 324.085938 177.207031 327.859375 179.027344 C 331.636719 180.859375 335.699219 181.289062 340.0625 180.324219 C 342.695312 179.742188 344.683594 178.71875 346.023438 177.25 C 347.363281 175.78125 347.832031 174.140625 347.433594 172.324219 C 346.8125 169.519531 342.855469 167.929688 335.550781 167.546875 C 333.179688 167.449219 331.316406 167.339844 329.957031 167.226562 C 325.542969 166.890625 322.125 166.53125 319.695312 166.148438 C 317.265625 165.765625 315.46875 165.300781 314.308594 164.75 C 311.570312 163.515625 309.40625 161.949219 307.8125 160.054688 C 306.222656 158.167969 305.128906 155.859375 304.53125 153.136719 C 303.238281 147.277344 304.367188 142.0625 307.921875 137.503906 C 311.472656 132.949219 316.816406 129.878906 323.953125 128.304688 C 327.582031 127.503906 331.042969 127.113281 334.339844 127.125 C 337.644531 127.140625 340.929688 127.558594 344.199219 128.382812 L 345.121094 125.101562 L 353.492188 123.253906 L 357.964844 143.527344 L 348.148438 145.691406 C 346.273438 141.769531 343.78125 139.085938 340.671875 137.652344 C 337.566406 136.210938 333.789062 135.984375 329.34375 136.960938 C 326.730469 137.539062 324.71875 138.609375 323.296875 140.171875 C 321.875 141.730469 321.355469 143.378906 321.734375 145.105469 C 322.3125 147.714844 325.972656 148.96875 332.722656 148.875 C 334.386719 148.863281 335.675781 148.863281 336.601562 148.867188 C 346.0625 148.945312 352.941406 150.121094 357.246094 152.398438 C 361.550781 154.671875 364.285156 158.460938 365.457031 163.757812 C 366.753906 169.652344 365.558594 174.835938 361.871094 179.320312 C 358.183594 183.804688 352.558594 186.882812 344.996094 188.554688 C 341.539062 189.316406 338.128906 189.660156 334.757812 189.585938 C 331.382812 189.515625 327.949219 189.03125 324.457031 188.136719 L 323.003906 191.847656 L 315.011719 193.613281 L 310.21875 171.851562 " fill-opacity="1" fill-rule="nonzero"/><path fill="#ed1c24" d="M 136.90625 130.652344 L 142.382812 137.492188 L 151.121094 136.855469 L 146.3125 144.183594 L 149.621094 152.296875 L 141.164062 149.988281 L 134.472656 155.640625 L 134.0625 146.882812 L 126.617188 142.265625 L 134.808594 139.160156 L 136.90625 130.652344 " fill-opacity="1" fill-rule="nonzero"/><path fill="#ed1c24" d="M 214.042969 113.621094 L 219.523438 120.460938 L 228.257812 119.820312 L 223.449219 127.148438 L 226.757812 135.265625 L 218.304688 132.957031 L 211.609375 138.613281 L 211.199219 129.855469 L 203.753906 125.234375 L 211.949219 122.132812 L 214.042969 113.621094 " fill-opacity="1" fill-rule="nonzero"/><path fill="#ed1c24" d="M 171.503906 104.152344 L 181.210938 116.265625 L 196.691406 115.136719 L 188.171875 128.113281 L 194.027344 142.496094 L 179.058594 138.398438 L 167.199219 148.414062 L 166.464844 132.90625 L 153.285156 124.71875 L 167.796875 119.226562 L 171.503906 104.152344 " fill-opacity="1" fill-rule="nonzero"/><path fill="#ed1c24" d="M 242.414062 242.246094 L 236.933594 235.40625 L 228.195312 236.042969 L 233.003906 228.71875 L 229.695312 220.601562 L 238.148438 222.910156 L 244.84375 217.257812 L 245.257812 226.015625 L 252.699219 230.636719 L 244.507812 233.734375 L 242.414062 242.246094 " fill-opacity="1" fill-rule="nonzero"/><path fill="#ed1c24" d="M 165.273438 259.277344 L 159.796875 252.4375 L 151.058594 253.078125 L 155.867188 245.746094 L 152.554688 237.632812 L 161.011719 239.9375 L 167.703125 234.285156 L 168.121094 243.046875 L 175.5625 247.664062 L 167.371094 250.761719 L 165.273438 259.277344 " fill-opacity="1" fill-rule="nonzero"/><path fill="#ed1c24" d="M 207.8125 268.746094 L 198.101562 256.628906 L 182.625 257.765625 L 191.144531 244.78125 L 185.285156 230.40625 L 200.257812 234.5 L 212.117188 224.480469 L 212.847656 239.992188 L 226.035156 248.179688 L 211.519531 253.667969 L 207.8125 268.746094 " fill-opacity="1" fill-rule="nonzero"/></svg>